<?xml version="1.0" encoding="UTF-8"?>
<svg width="1738px" height="250px" viewBox="0 0 1738 250" version="1.1" xmlns="http://www.w3.org/2000/svg" xmlns:xlink="http://www.w3.org/1999/xlink">
    <!-- Generator: Sketch 63.1 (92452) - https://sketch.com -->
    <title>Group 3</title>
    <desc>Created with Sketch.</desc>
    <g id="Page-1" stroke="none" stroke-width="1" fill="none" fill-rule="evenodd">
        <g id="Artboard-Copy-6" transform="translate(-121.000000, -125.000000)" fill="#FFFFFF">
            <g id="Group-3" transform="translate(121.000000, 125.000000)">
                <g id="Group">
                    <path d="M153.854305,-1.16532035e-14 C187.286258,-1.77945535e-14 199.409492,3.48096042 211.631714,10.0174764 C223.853936,16.5539924 233.446008,26.1460639 239.982524,38.3682861 C246.51904,50.5905083 250,62.7137423 250,96.145695 L250,153.854305 C250,187.286258 246.51904,199.409492 239.982524,211.631714 C233.446008,223.853936 223.853936,233.446008 211.631714,239.982524 C199.409492,246.51904 187.286258,250 153.854305,250 L96.145695,250 C62.7137423,250 50.5905083,246.51904 38.3682861,239.982524 C26.1460639,233.446008 16.5539924,223.853936 10.0174764,211.631714 C3.48096042,199.409492 -8.85377046e-15,187.286258 -1.29480038e-14,153.854305 L-7.76880231e-15,96.145695 C-1.18630357e-14,62.7137423 3.48096042,50.5905083 10.0174764,38.3682861 C16.5539924,26.1460639 26.1460639,16.5539924 38.3682861,10.0174764 C50.5905083,3.48096042 62.7137423,-1.32806557e-14 96.145695,-1.94220058e-14 L153.854305,-1.16532035e-14 Z M157.083333,38.75 L93.75,38.75 C88.2271525,38.75 83.75,43.2271525 83.75,48.75 L83.75,48.75 L83.7493333,83.541 L48.9583333,83.5416667 C43.4354858,83.5416667 38.9583333,88.0188192 38.9583333,93.5416667 L38.9583333,93.5416667 L38.9583333,156.875 C38.9583333,162.397847 43.4354858,166.875 48.9583333,166.875 L48.9583333,166.875 L83.7493333,166.875 L83.75,201.666667 C83.75,207.189514 88.2271525,211.666667 93.75,211.666667 L93.75,211.666667 L157.083333,211.666667 C162.606181,211.666667 167.083333,207.189514 167.083333,201.666667 L167.083333,201.666667 L167.083333,166.875 L201.875,166.875 C207.397847,166.875 211.875,162.397847 211.875,156.875 L211.875,156.875 L211.875,93.5416667 C211.875,88.0188192 207.397847,83.5416667 201.875,83.5416667 L201.875,83.5416667 L167.083333,83.541 L167.083333,48.75 C167.083333,43.2271525 162.606181,38.75 157.083333,38.75 L157.083333,38.75 Z M149.166667,94.1666667 C153.308802,94.1666667 156.666667,97.524531 156.666667,101.666667 L156.666667,101.666667 L156.666667,149.166667 L156.662813,149.409398 C156.534684,153.439192 153.227584,156.666667 149.166667,156.666667 L149.166667,156.666667 L101.666667,156.666667 L101.423936,156.662813 C97.3941411,156.534684 94.1666667,153.227584 94.1666667,149.166667 L94.1666667,149.166667 L94.1666667,101.666667 L94.1705202,101.423936 C94.2986491,97.3941411 97.6057494,94.1666667 101.666667,94.1666667 L101.666667,94.1666667 Z" id="Combined-Shape"></path>
                </g>
                <path d="M403,207 L403,45 L374,45 L374,207 L403,207 Z M465.933501,208 L465.933501,141.50738 C465.933501,122.444649 473.427854,108.147601 491.595985,108.147601 C508.174404,108.147601 514.760351,119.494465 514.760351,143.776753 L514.760351,208 L542.46675,208 L542.46675,139.01107 C542.46675,121.083026 551.096612,108.147601 568.356336,108.147601 C584.707654,108.147601 591.293601,119.948339 591.293601,144.457565 L591.293601,208 L619,208 L619,134.01845 C619,102.47417 603.557089,85 576.077792,85 C554.95734,85 543.148055,94.9852399 535.880803,105.197417 C528.840652,92.2619926 517.258469,85 500.225847,85 C482.284818,85 470.475533,93.1697417 464.343789,103.835793 C464.570891,101.112546 464.570891,98.8431734 464.570891,96.3468635 L464.570891,88.8579336 L438,88.8579336 C438.227102,95.2121771 438.227102,100.885609 438.227102,107.239852 L438.227102,208 L465.933501,208 Z M676.933501,208 L676.933501,141.50738 C676.933501,122.444649 684.427854,108.147601 702.595985,108.147601 C719.174404,108.147601 725.760351,119.494465 725.760351,143.776753 L725.760351,208 L753.46675,208 L753.46675,139.01107 C753.46675,121.083026 762.096612,108.147601 779.356336,108.147601 C795.707654,108.147601 802.293601,119.948339 802.293601,144.457565 L802.293601,208 L830,208 L830,134.01845 C830,102.47417 814.557089,85 787.077792,85 C765.95734,85 754.148055,94.9852399 746.880803,105.197417 C739.840652,92.2619926 728.258469,85 711.225847,85 C693.284818,85 681.475533,93.1697417 675.343789,103.835793 C675.570891,101.112546 675.570891,98.8431734 675.570891,96.3468635 L675.570891,88.8579336 L649,88.8579336 C649.227102,95.2121771 649.227102,100.885609 649.227102,107.239852 L649.227102,208 L676.933501,208 Z M903.347548,211 C921.371002,211 933.462687,203.304267 940.535181,190.855288 L940.535181,207.831169 L967,207.831169 C966.792595,202.686962 966.773741,197.168632 966.772026,191.61629 L966.771855,89 L938.938166,89 L938.938166,151.244898 C938.938166,169.805195 934.147122,188.139147 912.473348,188.139147 C893.309168,188.139147 887.833689,173.426716 887.833689,152.376623 L887.833689,89 L860,89 L860,159.166976 C860,195.155844 876.198294,211 903.347548,211 Z M1025.94268,208 L1025.94268,141.50738 C1025.94268,122.898524 1034.12102,108.147601 1052.97665,108.147601 C1071.83227,108.147601 1077.2845,123.125461 1077.2845,146.5 L1077.2845,208 L1105,208 L1105,134.01845 C1105,103.154982 1089.32484,85 1061.83652,85 C1043.43524,85 1031.84926,92.9428044 1024.57962,103.835793 C1024.35244,103.835793 1024.35244,103.835793 1024.35244,103.608856 C1024.57962,101.112546 1024.57962,98.6162362 1024.57962,96.1199262 L1024.57962,88.6309963 L998,88.6309963 C998.227176,94.7583026 998.227176,100.658672 998.227176,106.785978 L998.227176,208 L1025.94268,208 Z M1189.2,211 C1217.98667,211 1237.70667,195.096601 1244.96,173.286225 L1217.08,173.286225 C1211.86667,182.373882 1203.48,188.053667 1189.88,188.053667 C1170.61333,188.053667 1157.46667,173.9678 1155.65333,154.429338 L1246.77333,154.65653 C1246.77333,153.974955 1247,151.47585 1247,147.159213 C1247,112.398927 1226.6,84 1188.74667,84 C1152.48,84 1128,111.035778 1128,147.386404 C1128,184.645796 1152.02667,211 1189.2,211 Z M1219,135 L1156,135 C1158.50181,115.96875 1170.78339,106 1188.06859,106 C1206.0361,106 1217.18051,118.6875 1219,135 Z M1300.8982,207 L1300.8982,143.332867 L1320.01198,143.332867 C1338.44311,143.332867 1353.46108,142.426573 1366.20359,134.043357 C1379.62874,125.206993 1386,110.47972 1386,93.4867133 C1386,75.1342657 1378.03593,60.1804196 1363.7006,52.7034965 C1350.73054,45.9062937 1341.17365,45 1320.23952,45 L1272,45 L1272,207 L1300.8982,207 Z M1325.16129,119 L1301,119 L1301,71 L1323.80645,71 C1345.93548,71 1357,78.8873239 1357,94.4366197 C1357,112.239437 1343,119 1325.16129,119 Z M1440.55324,210 C1459.89562,210 1473.54906,201.621377 1480.14823,191.884058 C1480.14823,198.903986 1480.8309,204.338768 1481.51357,207.735507 L1507,207.735507 C1505.21325,199.067532 1504.30334,187.781878 1504.27025,171.737542 L1504.26931,137.536232 C1504.26931,97.0018116 1484.0167,85 1454.88935,85 C1423.71399,85 1404.82672,103.115942 1403.68894,125.987319 L1430.08559,125.987319 C1431.6785,114.438406 1438.50522,106.512681 1454.20668,106.512681 C1469.90814,106.512681 1476.73486,113.759058 1477.41754,133.686594 C1469.45303,134.365942 1460.12317,135.271739 1449.88309,136.856884 C1424.62422,140.480072 1398,149.990942 1398,174.673913 C1398,197.092391 1415.74948,210 1440.55324,210 Z M1448.58824,190 C1435.91855,190 1428,184.618182 1428,173.854545 C1428,161.521212 1441.8009,156.587879 1471.8914,153.672727 L1478,153 C1477.77376,155.466667 1477.77376,157.709091 1477.77376,157.933333 C1477.77376,177.890909 1468.49774,190 1448.58824,190 Z M1576.54358,211 C1604.24541,211 1624,195.295699 1624,171.625448 C1624,151.141577 1611.9656,143.175627 1587.44266,136.34767 L1574.27294,132.933692 C1562.23853,129.519713 1555.88073,127.243728 1555.88073,119.277778 C1555.88073,111.994624 1561.7844,106.077061 1574.27294,106.077061 C1586.30734,106.077061 1594.02752,111.084229 1597.43349,121.326165 L1621.95642,121.326165 C1620.13991,97.655914 1600.38532,84 1574.95413,84 C1548.38761,84 1529.08716,99.0215054 1529.08716,120.870968 C1529.08716,142.948029 1544.52752,150.68638 1563.82798,156.148746 L1576.99771,159.790323 C1589.03211,163.204301 1598.11468,165.480287 1598.11468,173.901434 C1598.11468,183.005376 1588.80505,188.695341 1576.99771,188.695341 C1563.37385,188.695341 1554.51835,181.412186 1551.11239,169.577061 L1525,169.577061 C1529.54128,197.116487 1546.79817,211 1576.54358,211 Z M1690.54358,211 C1718.24541,211 1738,195.295699 1738,171.625448 C1738,151.141577 1725.9656,143.175627 1701.44266,136.34767 L1688.27294,132.933692 C1676.23853,129.519713 1669.88073,127.243728 1669.88073,119.277778 C1669.88073,111.994624 1675.7844,106.077061 1688.27294,106.077061 C1700.30734,106.077061 1708.02752,111.084229 1711.43349,121.326165 L1735.95642,121.326165 C1734.13991,97.655914 1714.38532,84 1688.95413,84 C1662.38761,84 1643.08716,99.0215054 1643.08716,120.870968 C1643.08716,142.948029 1658.52752,150.68638 1677.82798,156.148746 L1690.99771,159.790323 C1703.03211,163.204301 1712.11468,165.480287 1712.11468,173.901434 C1712.11468,183.005376 1702.80505,188.695341 1690.99771,188.695341 C1677.37385,188.695341 1668.51835,181.412186 1665.11239,169.577061 L1639,169.577061 C1643.54128,197.116487 1660.79817,211 1690.54358,211 Z" id="ImmunePass" fill-rule="nonzero"></path>
            </g>
        </g>
    </g>
</svg>